<svg width="28" height="28" viewBox="0 0 28 28" fill="none" xmlns="http://www.w3.org/2000/svg">
<path d="M13.9903 23.7106C11.3894 23.7106 8.89493 22.6774 7.05576 20.8382C5.2166 18.9991 4.18336 16.5046 4.18336 13.9036C4.18336 11.3027 5.2166 8.80823 7.05576 6.96906C8.89493 5.1299 11.3894 4.09666 13.9903 4.09666C16.5913 4.09666 19.0858 5.1299 20.9249 6.96906C22.7641 8.80823 23.7973 11.3027 23.7973 13.9036C23.7973 16.5046 22.7641 18.9991 20.9249 20.8382C19.0858 22.6774 16.5913 23.7106 13.9903 23.7106ZM13.9903 26.1831C17.2471 26.1831 20.3704 24.8893 22.6732 22.5865C24.976 20.2837 26.2698 17.1604 26.2698 13.9036C26.2698 10.6469 24.976 7.52363 22.6732 5.22079C20.3704 2.91796 17.2471 1.62424 13.9903 1.62424C10.7336 1.62424 7.61033 2.91796 5.30749 5.22079C3.00466 7.52363 1.71094 10.6469 1.71094 13.9036C1.71094 17.1604 3.00466 20.2837 5.30749 22.5865C7.61033 24.8893 10.7336 26.1831 13.9903 26.1831Z" fill="#D82929" stroke="#D82929"/>
<path d="M7.96266 13.0295C7.73083 13.2614 7.60059 13.5758 7.60059 13.9037C7.60059 14.2315 7.73083 14.546 7.96266 14.7778C8.1945 15.0096 8.50894 15.1399 8.8368 15.1399H19.1438C19.4716 15.1399 19.7861 15.0096 20.0179 14.7778C20.2498 14.546 20.38 14.2315 20.38 13.9037C20.38 13.5758 20.2498 13.2614 20.0179 13.0295C19.7861 12.7977 19.4716 12.6674 19.1438 12.6674H8.8368C8.50893 12.6674 8.1945 12.7977 7.96266 13.0295Z" fill="#D82929" stroke="#D82929"/>
</svg>
