<svg width="28" height="28" viewBox="0 0 28 28" fill="none" xmlns="http://www.w3.org/2000/svg">
<path d="M13.9903 23.8297C11.3894 23.8297 8.89493 22.7964 7.05576 20.9573C5.2166 19.1181 4.18336 16.6236 4.18336 14.0227C4.18336 11.4217 5.2166 8.92725 7.05576 7.08808C8.89493 5.24891 11.3894 4.21568 13.9903 4.21568C16.5913 4.21568 19.0858 5.24891 20.9249 7.08808C22.7641 8.92725 23.7973 11.4217 23.7973 14.0227C23.7973 16.6236 22.7641 19.1181 20.9249 20.9573C19.0858 22.7964 16.5913 23.8297 13.9903 23.8297ZM13.9903 26.3021C17.2471 26.3021 20.3704 25.0084 22.6732 22.7055C24.976 20.4027 26.2698 17.2794 26.2698 14.0227C26.2698 10.766 24.976 7.64265 22.6732 5.33981C20.3704 3.03698 17.2471 1.74326 13.9903 1.74326C10.7336 1.74326 7.61033 3.03698 5.30749 5.33981C3.00466 7.64265 1.71094 10.766 1.71094 14.0227C1.71094 17.2794 3.00466 20.4027 5.30749 22.7055C7.61033 25.0084 10.7336 26.3021 13.9903 26.3021Z" fill="#D82929" stroke="#D82929"/>
<path d="M13.99 7.67142C14.2016 7.67142 14.4045 7.7568 14.5541 7.90879C14.7037 8.06078 14.7877 8.26692 14.7877 8.48187V13.3446H19.574C19.7855 13.3446 19.9884 13.43 20.138 13.582C20.2876 13.7339 20.3717 13.9401 20.3717 14.155C20.3717 14.37 20.2876 14.5761 20.138 14.7281C19.9884 14.8801 19.7855 14.9655 19.574 14.9655H14.7877V19.8282C14.7877 20.0431 14.7037 20.2493 14.5541 20.4013C14.4045 20.5533 14.2016 20.6386 13.99 20.6386C13.7785 20.6386 13.5756 20.5533 13.426 20.4013C13.2764 20.2493 13.1923 20.0431 13.1923 19.8282V14.9655H8.4061C8.19454 14.9655 7.99164 14.8801 7.84204 14.7281C7.69244 14.5761 7.6084 14.37 7.6084 14.155C7.6084 13.9401 7.69244 13.7339 7.84204 13.582C7.99164 13.43 8.19454 13.3446 8.4061 13.3446H13.1923V8.48187C13.1923 8.26692 13.2764 8.06078 13.426 7.90879C13.5756 7.7568 13.7785 7.67142 13.99 7.67142Z" fill="#D82929" stroke="#D82929"/>
</svg>
