<svg width="14" height="14" viewBox="0 0 14 14" fill="none" xmlns="http://www.w3.org/2000/svg">
<path fill-rule="evenodd" clip-rule="evenodd" d="M6.97085 3.70388C6.09283 3.7042 5.23854 3.97317 4.53596 4.47051C3.83337 4.96784 3.3203 5.66677 3.07359 6.46261C2.82687 7.25844 2.85981 8.10835 3.16745 8.88503C3.47509 9.6617 4.04088 10.3233 4.78008 10.7708C5.51928 11.2184 6.39209 11.4276 7.26779 11.3673C8.14349 11.307 8.97494 10.9804 9.6376 10.4364C10.3003 9.89239 10.7585 9.16024 10.9436 8.34964C11.1287 7.53904 11.0308 6.6936 10.6645 5.93997C10.6246 5.84835 10.6238 5.74571 10.6622 5.65354C10.7007 5.56136 10.7754 5.4868 10.8707 5.44546C10.966 5.40412 11.0746 5.3992 11.1736 5.43173C11.2727 5.46425 11.3546 5.53171 11.4022 5.61999C11.8418 6.52439 11.9592 7.53895 11.737 8.51169C11.5148 9.48444 10.9649 10.363 10.1696 11.0158C9.37432 11.6686 8.37651 12.0605 7.32562 12.1327C6.27474 12.205 5.22735 11.9537 4.34036 11.4166C3.45336 10.8794 2.7745 10.0854 2.40546 9.15326C2.03643 8.22116 1.99708 7.20123 2.29332 6.24624C2.58955 5.29125 3.20542 4.45261 4.04868 3.85594C4.89194 3.25927 5.91719 2.93669 6.97085 2.93652V3.70388Z" fill="#1ED760"/>
<path d="M6.9707 4.82884V1.81158C6.97072 1.77513 6.98173 1.73943 7.00245 1.70868C7.02316 1.67792 7.05273 1.65338 7.08768 1.63792C7.12264 1.62246 7.16153 1.61673 7.19981 1.62139C7.23809 1.62605 7.27417 1.64092 7.30383 1.66425L9.22133 3.17288C9.31883 3.24962 9.31883 3.39081 9.22133 3.46755L7.30383 4.97618C7.27417 4.99951 7.23809 5.01437 7.19981 5.01904C7.16153 5.0237 7.12264 5.01797 7.08768 5.00251C7.05273 4.98705 7.02316 4.9625 7.00245 4.93175C6.98173 4.90099 6.97072 4.8653 6.9707 4.82884Z" fill="#1ED760"/>
</svg>
