<svg width="26" height="23" viewBox="0 0 26 23" fill="none" xmlns="http://www.w3.org/2000/svg">
<path d="M12.999 16.7501V9.25012M12.999 9.25012L9.24902 11.7501M12.999 9.25012L16.749 11.7501M1.74902 4.25012V17.7501C1.74902 19.1502 1.74902 19.8498 2.02151 20.3846C2.26119 20.855 2.64336 21.2382 3.11377 21.4779C3.64803 21.7501 4.34777 21.7501 5.74516 21.7501H20.2529C21.6503 21.7501 22.349 21.7501 22.8833 21.4779C23.3537 21.2382 23.7371 20.8553 23.9768 20.3849C24.2493 19.8501 24.2493 19.15 24.2493 17.7499L24.2493 8.24984C24.2493 6.84971 24.2493 6.14965 23.9768 5.61487C23.7371 5.14446 23.3539 4.76229 22.8835 4.52261C22.3487 4.25012 21.6492 4.25012 20.249 4.25012H12.999M1.74902 4.25012H12.999M1.74902 4.25012C1.74902 2.86941 2.86831 1.75012 4.24902 1.75012H8.84217C9.45365 1.75012 9.7601 1.75012 10.0478 1.8192C10.3029 1.88044 10.5463 1.9817 10.77 2.11877C11.0222 2.27333 11.2388 2.48989 11.6709 2.922L12.999 4.25012" stroke="white" strokeWidth="2" strokeLinecap="round" stroke-linejoin="round"/>
</svg>
